<mxfile host="app.diagrams.net" agent="Mozilla/5.0 (Windows NT 10.0; Win64; x64) AppleWebKit/537.36 (KHTML, like Gecko) Chrome/127.0.0.0 Safari/537.36" version="24.7.6">
  <diagram name="Page-1" id="NuQ8sDbINXvNX4gbBRJW">
    <mxGraphModel dx="2514" dy="878" grid="1" gridSize="10" guides="1" tooltips="1" connect="1" arrows="1" fold="1" page="1" pageScale="1" pageWidth="827" pageHeight="1169" math="0" shadow="0">
      <root>
        <mxCell id="0" />
        <mxCell id="1" parent="0" />
        <mxCell id="PtnBD-MqwxmyIaQdnE39-71" value="Application" style="rounded=1;whiteSpace=wrap;html=1;fillColor=#d5e8d4;strokeColor=#82b366;labelPosition=center;verticalLabelPosition=top;align=center;verticalAlign=bottom;spacingBottom=-26;" vertex="1" parent="1">
          <mxGeometry x="105.95" y="1490" width="434.05" height="140" as="geometry" />
        </mxCell>
        <mxCell id="7G1H1wRRWMd9MSqFdtv3-19" style="edgeStyle=orthogonalEdgeStyle;rounded=0;orthogonalLoop=1;jettySize=auto;html=1;entryX=0;entryY=0.25;entryDx=0;entryDy=0;" parent="1" source="7G1H1wRRWMd9MSqFdtv3-1" target="ick9jgWGnxJUqGrP5emk-67" edge="1">
          <mxGeometry relative="1" as="geometry" />
        </mxCell>
        <object label="PROCESS 1" id="7G1H1wRRWMd9MSqFdtv3-1">
          <mxCell style="rounded=1;whiteSpace=wrap;html=1;fillColor=#ffe6cc;strokeColor=#d79b00;" parent="1" vertex="1">
            <mxGeometry x="-20" y="100" width="80" height="120" as="geometry" />
          </mxCell>
        </object>
        <object label="PROCESS 2" id="7G1H1wRRWMd9MSqFdtv3-5">
          <mxCell style="rounded=1;whiteSpace=wrap;html=1;fillColor=#ffe6cc;strokeColor=#d79b00;" parent="1" vertex="1">
            <mxGeometry x="-20" y="235" width="80" height="120" as="geometry" />
          </mxCell>
        </object>
        <object label="PROCESS 3" id="7G1H1wRRWMd9MSqFdtv3-6">
          <mxCell style="rounded=1;whiteSpace=wrap;html=1;fillColor=#ffe6cc;strokeColor=#d79b00;" parent="1" vertex="1">
            <mxGeometry x="-20" y="370" width="80" height="120" as="geometry" />
          </mxCell>
        </object>
        <mxCell id="7G1H1wRRWMd9MSqFdtv3-22" style="edgeStyle=orthogonalEdgeStyle;rounded=0;orthogonalLoop=1;jettySize=auto;html=1;entryX=0;entryY=0.5;entryDx=0;entryDy=0;" parent="1" source="7G1H1wRRWMd9MSqFdtv3-8" target="7G1H1wRRWMd9MSqFdtv3-7" edge="1">
          <mxGeometry relative="1" as="geometry" />
        </mxCell>
        <mxCell id="7G1H1wRRWMd9MSqFdtv3-29" style="edgeStyle=orthogonalEdgeStyle;rounded=0;orthogonalLoop=1;jettySize=auto;html=1;" parent="1" source="7G1H1wRRWMd9MSqFdtv3-8" target="7G1H1wRRWMd9MSqFdtv3-102" edge="1">
          <mxGeometry relative="1" as="geometry">
            <mxPoint x="384" y="294.9999999999999" as="targetPoint" />
          </mxGeometry>
        </mxCell>
        <mxCell id="7G1H1wRRWMd9MSqFdtv3-34" style="edgeStyle=orthogonalEdgeStyle;rounded=0;orthogonalLoop=1;jettySize=auto;html=1;entryX=0;entryY=0.5;entryDx=0;entryDy=0;" parent="1" source="7G1H1wRRWMd9MSqFdtv3-8" target="7G1H1wRRWMd9MSqFdtv3-106" edge="1">
          <mxGeometry relative="1" as="geometry">
            <mxPoint x="390" y="400" as="targetPoint" />
          </mxGeometry>
        </mxCell>
        <mxCell id="7G1H1wRRWMd9MSqFdtv3-8" value="Message Dispatcher" style="rounded=1;whiteSpace=wrap;html=1;fillColor=#dae8fc;strokeColor=#6c8ebf;textDirection=vertical-lr;" parent="1" vertex="1">
          <mxGeometry x="368" y="135" width="90" height="320" as="geometry" />
        </mxCell>
        <mxCell id="7G1H1wRRWMd9MSqFdtv3-20" style="edgeStyle=orthogonalEdgeStyle;rounded=0;orthogonalLoop=1;jettySize=auto;html=1;entryX=0;entryY=0.5;entryDx=0;entryDy=0;" parent="1" source="ick9jgWGnxJUqGrP5emk-64" target="7G1H1wRRWMd9MSqFdtv3-8" edge="1">
          <mxGeometry relative="1" as="geometry">
            <mxPoint x="384" y="280" as="targetPoint" />
          </mxGeometry>
        </mxCell>
        <mxCell id="7G1H1wRRWMd9MSqFdtv3-21" style="edgeStyle=orthogonalEdgeStyle;rounded=0;orthogonalLoop=1;jettySize=auto;html=1;entryX=0;entryY=0.75;entryDx=0;entryDy=0;" parent="1" source="7G1H1wRRWMd9MSqFdtv3-6" target="ick9jgWGnxJUqGrP5emk-67" edge="1">
          <mxGeometry relative="1" as="geometry" />
        </mxCell>
        <mxCell id="7G1H1wRRWMd9MSqFdtv3-37" style="edgeStyle=orthogonalEdgeStyle;rounded=0;orthogonalLoop=1;jettySize=auto;html=1;entryX=0;entryY=0.5;entryDx=0;entryDy=0;" parent="1" source="7G1H1wRRWMd9MSqFdtv3-7" target="7G1H1wRRWMd9MSqFdtv3-41" edge="1">
          <mxGeometry relative="1" as="geometry">
            <mxPoint x="599.9999999999998" y="190" as="targetPoint" />
          </mxGeometry>
        </mxCell>
        <mxCell id="7G1H1wRRWMd9MSqFdtv3-38" style="edgeStyle=orthogonalEdgeStyle;rounded=0;orthogonalLoop=1;jettySize=auto;html=1;exitX=1;exitY=0.5;exitDx=0;exitDy=0;" parent="1" source="7G1H1wRRWMd9MSqFdtv3-102" target="7G1H1wRRWMd9MSqFdtv3-42" edge="1">
          <mxGeometry relative="1" as="geometry">
            <mxPoint x="564.0000000000002" y="294.9999999999999" as="sourcePoint" />
            <mxPoint x="599.9999999999998" y="295" as="targetPoint" />
          </mxGeometry>
        </mxCell>
        <mxCell id="7G1H1wRRWMd9MSqFdtv3-39" style="edgeStyle=orthogonalEdgeStyle;rounded=0;orthogonalLoop=1;jettySize=auto;html=1;entryX=0;entryY=0.5;entryDx=0;entryDy=0;" parent="1" target="7G1H1wRRWMd9MSqFdtv3-43" edge="1">
          <mxGeometry relative="1" as="geometry">
            <mxPoint x="560" y="400" as="sourcePoint" />
            <mxPoint x="599.9999999999998" y="400" as="targetPoint" />
          </mxGeometry>
        </mxCell>
        <mxCell id="7G1H1wRRWMd9MSqFdtv3-41" value="Process1 Stub/Proxy" style="rounded=1;whiteSpace=wrap;html=1;fillColor=#d5e8d4;strokeColor=#82b366;" parent="1" vertex="1">
          <mxGeometry x="710" y="145" width="70" height="90" as="geometry" />
        </mxCell>
        <mxCell id="7G1H1wRRWMd9MSqFdtv3-42" value="Process2 Stub/Proxy" style="rounded=1;whiteSpace=wrap;html=1;fillColor=#d5e8d4;strokeColor=#82b366;" parent="1" vertex="1">
          <mxGeometry x="710" y="250" width="70" height="90" as="geometry" />
        </mxCell>
        <mxCell id="7G1H1wRRWMd9MSqFdtv3-43" value="Process3 Stub/Proxy" style="rounded=1;whiteSpace=wrap;html=1;fillColor=#d5e8d4;strokeColor=#82b366;" parent="1" vertex="1">
          <mxGeometry x="710" y="355" width="70" height="90" as="geometry" />
        </mxCell>
        <mxCell id="7G1H1wRRWMd9MSqFdtv3-100" value="" style="group" parent="1" vertex="1" connectable="0">
          <mxGeometry x="500" y="160" width="180" height="60" as="geometry" />
        </mxCell>
        <mxCell id="7G1H1wRRWMd9MSqFdtv3-7" value="Process1&lt;div&gt;Queue&lt;/div&gt;" style="rounded=1;whiteSpace=wrap;html=1;fillColor=#ffff88;strokeColor=#36393d;labelPosition=right;verticalLabelPosition=middle;align=left;verticalAlign=middle;spacing=-51;" parent="7G1H1wRRWMd9MSqFdtv3-100" vertex="1">
          <mxGeometry width="180" height="60" as="geometry" />
        </mxCell>
        <mxCell id="7G1H1wRRWMd9MSqFdtv3-11" value="&lt;font style=&quot;font-size: 10px;&quot;&gt;Message&lt;/font&gt;" style="rounded=1;whiteSpace=wrap;html=1;fillColor=#b1ddf0;strokeColor=#10739e;" parent="7G1H1wRRWMd9MSqFdtv3-100" vertex="1">
          <mxGeometry x="14" y="15" width="50" height="30" as="geometry" />
        </mxCell>
        <mxCell id="7G1H1wRRWMd9MSqFdtv3-13" value="&lt;font style=&quot;font-size: 10px;&quot;&gt;Message&lt;/font&gt;" style="rounded=1;whiteSpace=wrap;html=1;fillColor=#b1ddf0;strokeColor=#10739e;" parent="7G1H1wRRWMd9MSqFdtv3-100" vertex="1">
          <mxGeometry x="70" y="15" width="50" height="30" as="geometry" />
        </mxCell>
        <mxCell id="7G1H1wRRWMd9MSqFdtv3-101" value="" style="group" parent="1" vertex="1" connectable="0">
          <mxGeometry x="500" y="265" width="180" height="60" as="geometry" />
        </mxCell>
        <mxCell id="7G1H1wRRWMd9MSqFdtv3-102" value="Process2&lt;div&gt;Queue&lt;/div&gt;" style="rounded=1;whiteSpace=wrap;html=1;fillColor=#ffff88;strokeColor=#36393d;labelPosition=right;verticalLabelPosition=middle;align=left;verticalAlign=middle;spacing=-51;" parent="7G1H1wRRWMd9MSqFdtv3-101" vertex="1">
          <mxGeometry width="180" height="60" as="geometry" />
        </mxCell>
        <mxCell id="7G1H1wRRWMd9MSqFdtv3-103" value="&lt;font style=&quot;font-size: 10px;&quot;&gt;Message&lt;/font&gt;" style="rounded=1;whiteSpace=wrap;html=1;fillColor=#b1ddf0;strokeColor=#10739e;" parent="7G1H1wRRWMd9MSqFdtv3-101" vertex="1">
          <mxGeometry x="14" y="15" width="50" height="30" as="geometry" />
        </mxCell>
        <mxCell id="7G1H1wRRWMd9MSqFdtv3-104" value="&lt;font style=&quot;font-size: 10px;&quot;&gt;Message&lt;/font&gt;" style="rounded=1;whiteSpace=wrap;html=1;fillColor=#b1ddf0;strokeColor=#10739e;" parent="7G1H1wRRWMd9MSqFdtv3-101" vertex="1">
          <mxGeometry x="70" y="15" width="50" height="30" as="geometry" />
        </mxCell>
        <mxCell id="7G1H1wRRWMd9MSqFdtv3-105" value="" style="group" parent="1" vertex="1" connectable="0">
          <mxGeometry x="500" y="370" width="180" height="60" as="geometry" />
        </mxCell>
        <mxCell id="7G1H1wRRWMd9MSqFdtv3-106" value="Process3&lt;div&gt;Queue&lt;/div&gt;" style="rounded=1;whiteSpace=wrap;html=1;fillColor=#ffff88;strokeColor=#36393d;labelPosition=right;verticalLabelPosition=middle;align=left;verticalAlign=middle;spacing=-51;" parent="7G1H1wRRWMd9MSqFdtv3-105" vertex="1">
          <mxGeometry width="180" height="60" as="geometry" />
        </mxCell>
        <mxCell id="7G1H1wRRWMd9MSqFdtv3-107" value="&lt;font style=&quot;font-size: 10px;&quot;&gt;Message&lt;/font&gt;" style="rounded=1;whiteSpace=wrap;html=1;fillColor=#b1ddf0;strokeColor=#10739e;" parent="7G1H1wRRWMd9MSqFdtv3-105" vertex="1">
          <mxGeometry x="14" y="15" width="50" height="30" as="geometry" />
        </mxCell>
        <mxCell id="7G1H1wRRWMd9MSqFdtv3-108" value="&lt;font style=&quot;font-size: 10px;&quot;&gt;Message&lt;/font&gt;" style="rounded=1;whiteSpace=wrap;html=1;fillColor=#b1ddf0;strokeColor=#10739e;" parent="7G1H1wRRWMd9MSqFdtv3-105" vertex="1">
          <mxGeometry x="70" y="15" width="50" height="30" as="geometry" />
        </mxCell>
        <mxCell id="7G1H1wRRWMd9MSqFdtv3-114" value="Message Dispatcher" style="rounded=1;whiteSpace=wrap;html=1;fillColor=#dae8fc;strokeColor=#6c8ebf;textDirection=vertical-lr;verticalAlign=middle;rotation=-90;" parent="1" vertex="1">
          <mxGeometry x="129.07" y="1150.93" width="73.75" height="441.88" as="geometry" />
        </mxCell>
        <mxCell id="7G1H1wRRWMd9MSqFdtv3-117" value="&lt;div&gt;Funtion 1&lt;/div&gt;" style="rounded=1;whiteSpace=wrap;html=1;rotation=0;fillColor=#fff2cc;strokeColor=#d6b656;" parent="1" vertex="1">
          <mxGeometry x="-30" y="1090" width="80" height="90" as="geometry" />
        </mxCell>
        <mxCell id="7G1H1wRRWMd9MSqFdtv3-118" value="&lt;div&gt;Funtion 2&lt;/div&gt;" style="rounded=1;whiteSpace=wrap;html=1;rotation=0;textDirection=ltr;fillColor=#fff2cc;strokeColor=#d6b656;" parent="1" vertex="1">
          <mxGeometry x="80" y="1090" width="80" height="90" as="geometry" />
        </mxCell>
        <mxCell id="7G1H1wRRWMd9MSqFdtv3-119" value="&lt;div&gt;Funtion 4&lt;/div&gt;" style="rounded=1;whiteSpace=wrap;html=1;rotation=0;textDirection=ltr;fillColor=#fff2cc;strokeColor=#d6b656;" parent="1" vertex="1">
          <mxGeometry x="300" y="1090" width="80" height="90" as="geometry" />
        </mxCell>
        <mxCell id="7G1H1wRRWMd9MSqFdtv3-120" value="&lt;font style=&quot;font-size: 10px;&quot;&gt;Message ID1&lt;/font&gt;" style="rounded=1;whiteSpace=wrap;html=1;fillColor=#b1ddf0;strokeColor=#10739e;" parent="1" vertex="1">
          <mxGeometry x="-40" y="1320" width="50" height="30" as="geometry" />
        </mxCell>
        <mxCell id="7G1H1wRRWMd9MSqFdtv3-121" value="&lt;font style=&quot;font-size: 10px;&quot;&gt;Message ID2&lt;/font&gt;" style="rounded=1;whiteSpace=wrap;html=1;fillColor=#b1ddf0;strokeColor=#10739e;" parent="1" vertex="1">
          <mxGeometry x="20" y="1320" width="50" height="30" as="geometry" />
        </mxCell>
        <mxCell id="7G1H1wRRWMd9MSqFdtv3-122" value="&lt;font style=&quot;font-size: 10px;&quot;&gt;Message ID3&lt;/font&gt;" style="rounded=1;whiteSpace=wrap;html=1;fillColor=#b1ddf0;strokeColor=#10739e;" parent="1" vertex="1">
          <mxGeometry x="80" y="1320" width="50" height="30" as="geometry" />
        </mxCell>
        <mxCell id="7G1H1wRRWMd9MSqFdtv3-123" value="&lt;font style=&quot;font-size: 10px;&quot;&gt;Message ID4&lt;/font&gt;" style="rounded=1;whiteSpace=wrap;html=1;fillColor=#b1ddf0;strokeColor=#10739e;" parent="1" vertex="1">
          <mxGeometry x="140" y="1320" width="50" height="30" as="geometry" />
        </mxCell>
        <mxCell id="7G1H1wRRWMd9MSqFdtv3-124" value="&lt;font style=&quot;font-size: 10px;&quot;&gt;Message&amp;nbsp; &amp;nbsp;&lt;/font&gt;&lt;span style=&quot;font-size: 10px;&quot;&gt;ID5&lt;/span&gt;" style="rounded=1;whiteSpace=wrap;html=1;fillColor=#b1ddf0;strokeColor=#10739e;" parent="1" vertex="1">
          <mxGeometry x="200" y="1320" width="50" height="30" as="geometry" />
        </mxCell>
        <mxCell id="7G1H1wRRWMd9MSqFdtv3-125" value="&lt;font style=&quot;font-size: 10px;&quot;&gt;Message ID6&lt;/font&gt;" style="rounded=1;whiteSpace=wrap;html=1;fillColor=#b1ddf0;strokeColor=#10739e;" parent="1" vertex="1">
          <mxGeometry x="260" y="1320" width="52" height="30" as="geometry" />
        </mxCell>
        <mxCell id="7G1H1wRRWMd9MSqFdtv3-126" value="&lt;font style=&quot;font-size: 10px;&quot;&gt;Message ID7&lt;/font&gt;" style="rounded=1;whiteSpace=wrap;html=1;fillColor=#b1ddf0;strokeColor=#10739e;" parent="1" vertex="1">
          <mxGeometry x="320" y="1320" width="50" height="30" as="geometry" />
        </mxCell>
        <mxCell id="7G1H1wRRWMd9MSqFdtv3-127" value="" style="endArrow=classic;html=1;rounded=0;exitX=0.5;exitY=1;exitDx=0;exitDy=0;entryX=0.5;entryY=0;entryDx=0;entryDy=0;" parent="1" source="7G1H1wRRWMd9MSqFdtv3-117" target="7G1H1wRRWMd9MSqFdtv3-120" edge="1">
          <mxGeometry width="50" height="50" relative="1" as="geometry">
            <mxPoint x="330" y="1385" as="sourcePoint" />
            <mxPoint x="380" y="1335" as="targetPoint" />
          </mxGeometry>
        </mxCell>
        <mxCell id="ick9jgWGnxJUqGrP5emk-45" value="Subsribe" style="edgeLabel;html=1;align=center;verticalAlign=middle;resizable=0;points=[];" parent="7G1H1wRRWMd9MSqFdtv3-127" vertex="1" connectable="0">
          <mxGeometry x="0.6087" relative="1" as="geometry">
            <mxPoint x="-3" y="-52" as="offset" />
          </mxGeometry>
        </mxCell>
        <mxCell id="7G1H1wRRWMd9MSqFdtv3-128" value="" style="endArrow=classic;html=1;rounded=0;exitX=0.5;exitY=1;exitDx=0;exitDy=0;entryX=0.5;entryY=0;entryDx=0;entryDy=0;" parent="1" source="7G1H1wRRWMd9MSqFdtv3-117" target="7G1H1wRRWMd9MSqFdtv3-122" edge="1">
          <mxGeometry width="50" height="50" relative="1" as="geometry">
            <mxPoint x="450" y="1295" as="sourcePoint" />
            <mxPoint x="270" y="1270" as="targetPoint" />
          </mxGeometry>
        </mxCell>
        <mxCell id="ick9jgWGnxJUqGrP5emk-46" value="Subsribe" style="edgeLabel;html=1;align=center;verticalAlign=middle;resizable=0;points=[];" parent="7G1H1wRRWMd9MSqFdtv3-128" vertex="1" connectable="0">
          <mxGeometry x="-0.0327" relative="1" as="geometry">
            <mxPoint x="-11" y="-8" as="offset" />
          </mxGeometry>
        </mxCell>
        <mxCell id="7G1H1wRRWMd9MSqFdtv3-130" value="" style="endArrow=classic;html=1;rounded=0;exitX=0.5;exitY=1;exitDx=0;exitDy=0;entryX=0.5;entryY=0;entryDx=0;entryDy=0;" parent="1" source="7G1H1wRRWMd9MSqFdtv3-118" target="7G1H1wRRWMd9MSqFdtv3-121" edge="1">
          <mxGeometry width="50" height="50" relative="1" as="geometry">
            <mxPoint x="450" y="1295" as="sourcePoint" />
            <mxPoint x="270" y="1445" as="targetPoint" />
          </mxGeometry>
        </mxCell>
        <mxCell id="ick9jgWGnxJUqGrP5emk-48" value="Subsribe" style="edgeLabel;html=1;align=center;verticalAlign=middle;resizable=0;points=[];" parent="7G1H1wRRWMd9MSqFdtv3-130" vertex="1" connectable="0">
          <mxGeometry x="-0.4715" relative="1" as="geometry">
            <mxPoint y="3" as="offset" />
          </mxGeometry>
        </mxCell>
        <mxCell id="7G1H1wRRWMd9MSqFdtv3-132" value="" style="endArrow=classic;html=1;rounded=0;exitX=0.5;exitY=1;exitDx=0;exitDy=0;entryX=0.5;entryY=0;entryDx=0;entryDy=0;" parent="1" source="7G1H1wRRWMd9MSqFdtv3-118" target="7G1H1wRRWMd9MSqFdtv3-123" edge="1">
          <mxGeometry width="50" height="50" relative="1" as="geometry">
            <mxPoint x="450" y="1400" as="sourcePoint" />
            <mxPoint x="270" y="1355" as="targetPoint" />
          </mxGeometry>
        </mxCell>
        <mxCell id="ick9jgWGnxJUqGrP5emk-50" value="Subsribe" style="edgeLabel;html=1;align=center;verticalAlign=middle;resizable=0;points=[];" parent="7G1H1wRRWMd9MSqFdtv3-132" vertex="1" connectable="0">
          <mxGeometry x="-0.2411" relative="1" as="geometry">
            <mxPoint x="3" y="7" as="offset" />
          </mxGeometry>
        </mxCell>
        <mxCell id="7G1H1wRRWMd9MSqFdtv3-133" value="" style="endArrow=classic;html=1;rounded=0;exitX=0.5;exitY=1;exitDx=0;exitDy=0;entryX=0.5;entryY=0;entryDx=0;entryDy=0;" parent="1" source="7G1H1wRRWMd9MSqFdtv3-135" target="7G1H1wRRWMd9MSqFdtv3-125" edge="1">
          <mxGeometry width="50" height="50" relative="1" as="geometry">
            <mxPoint x="450" y="1400" as="sourcePoint" />
            <mxPoint x="270" y="1400" as="targetPoint" />
          </mxGeometry>
        </mxCell>
        <mxCell id="ick9jgWGnxJUqGrP5emk-52" value="Subsribe" style="edgeLabel;html=1;align=center;verticalAlign=middle;resizable=0;points=[];" parent="7G1H1wRRWMd9MSqFdtv3-133" vertex="1" connectable="0">
          <mxGeometry x="-0.2411" relative="1" as="geometry">
            <mxPoint x="8" y="11" as="offset" />
          </mxGeometry>
        </mxCell>
        <mxCell id="7G1H1wRRWMd9MSqFdtv3-134" value="" style="endArrow=classic;html=1;rounded=0;entryX=0.5;entryY=0;entryDx=0;entryDy=0;exitX=0.5;exitY=1;exitDx=0;exitDy=0;" parent="1" source="7G1H1wRRWMd9MSqFdtv3-119" target="7G1H1wRRWMd9MSqFdtv3-126" edge="1">
          <mxGeometry width="50" height="50" relative="1" as="geometry">
            <mxPoint x="430" y="1555" as="sourcePoint" />
            <mxPoint x="270" y="1490" as="targetPoint" />
          </mxGeometry>
        </mxCell>
        <mxCell id="ick9jgWGnxJUqGrP5emk-53" value="Subsribe" style="edgeLabel;html=1;align=center;verticalAlign=middle;resizable=0;points=[];" parent="7G1H1wRRWMd9MSqFdtv3-134" vertex="1" connectable="0">
          <mxGeometry x="-0.3163" y="-1" relative="1" as="geometry">
            <mxPoint as="offset" />
          </mxGeometry>
        </mxCell>
        <mxCell id="7G1H1wRRWMd9MSqFdtv3-135" value="&lt;div&gt;Funtion 3&lt;/div&gt;" style="rounded=1;whiteSpace=wrap;html=1;rotation=0;textDirection=ltr;fillColor=#fff2cc;strokeColor=#d6b656;" parent="1" vertex="1">
          <mxGeometry x="190" y="1090" width="80" height="90" as="geometry" />
        </mxCell>
        <mxCell id="7G1H1wRRWMd9MSqFdtv3-136" value="" style="endArrow=classic;html=1;rounded=0;entryX=0.5;entryY=0;entryDx=0;entryDy=0;exitX=0.5;exitY=1;exitDx=0;exitDy=0;" parent="1" source="7G1H1wRRWMd9MSqFdtv3-135" target="7G1H1wRRWMd9MSqFdtv3-124" edge="1">
          <mxGeometry width="50" height="50" relative="1" as="geometry">
            <mxPoint x="450" y="1535" as="sourcePoint" />
            <mxPoint x="270" y="1535" as="targetPoint" />
          </mxGeometry>
        </mxCell>
        <mxCell id="ick9jgWGnxJUqGrP5emk-51" value="Subsribe" style="edgeLabel;html=1;align=center;verticalAlign=middle;resizable=0;points=[];" parent="7G1H1wRRWMd9MSqFdtv3-136" vertex="1" connectable="0">
          <mxGeometry x="-0.295" y="-1" relative="1" as="geometry">
            <mxPoint x="-2" as="offset" />
          </mxGeometry>
        </mxCell>
        <object label="PROCESS 2" id="ick9jgWGnxJUqGrP5emk-3">
          <mxCell style="rounded=1;whiteSpace=wrap;html=1;fillColor=#ffe6cc;strokeColor=#d79b00;" parent="1" vertex="1">
            <mxGeometry x="-210" y="1579.38" width="80" height="120" as="geometry" />
          </mxCell>
        </object>
        <mxCell id="ick9jgWGnxJUqGrP5emk-65" value="" style="edgeStyle=orthogonalEdgeStyle;rounded=0;orthogonalLoop=1;jettySize=auto;html=1;entryX=0;entryY=0.5;entryDx=0;entryDy=0;" parent="1" source="7G1H1wRRWMd9MSqFdtv3-5" target="ick9jgWGnxJUqGrP5emk-67" edge="1">
          <mxGeometry relative="1" as="geometry">
            <mxPoint x="150" y="280" as="sourcePoint" />
            <mxPoint x="384" y="280" as="targetPoint" />
          </mxGeometry>
        </mxCell>
        <mxCell id="ick9jgWGnxJUqGrP5emk-64" value="Message Procesor" style="rounded=1;whiteSpace=wrap;html=1;fillColor=#fff2cc;strokeColor=#d6b656;textDirection=vertical-lr;" parent="1" vertex="1">
          <mxGeometry x="273" y="135" width="70" height="320" as="geometry" />
        </mxCell>
        <mxCell id="ick9jgWGnxJUqGrP5emk-67" value="Kernal IPC" style="rounded=1;whiteSpace=wrap;html=1;fillColor=#f5f5f5;strokeColor=#666666;textDirection=vertical-lr;fontColor=#333333;" parent="1" vertex="1">
          <mxGeometry x="120" y="135" width="110" height="320" as="geometry" />
        </mxCell>
        <mxCell id="ick9jgWGnxJUqGrP5emk-68" value="Queue" style="rounded=1;whiteSpace=wrap;html=1;fillColor=#e1d5e7;strokeColor=#9673a6;textDirection=vertical-lr;" parent="1" vertex="1">
          <mxGeometry x="190" y="200" width="50" height="190" as="geometry" />
        </mxCell>
        <mxCell id="ick9jgWGnxJUqGrP5emk-69" value="" style="endArrow=classic;html=1;rounded=0;exitX=1;exitY=0.5;exitDx=0;exitDy=0;" parent="1" source="ick9jgWGnxJUqGrP5emk-68" target="ick9jgWGnxJUqGrP5emk-64" edge="1">
          <mxGeometry width="50" height="50" relative="1" as="geometry">
            <mxPoint x="220" y="290" as="sourcePoint" />
            <mxPoint x="270" y="240" as="targetPoint" />
          </mxGeometry>
        </mxCell>
        <mxCell id="PtnBD-MqwxmyIaQdnE39-1" value="&lt;div&gt;Message Processor&lt;/div&gt;" style="rounded=1;whiteSpace=wrap;html=1;fillColor=#e1d5e7;strokeColor=#9673a6;" vertex="1" parent="1">
          <mxGeometry x="-320" y="1730" width="80" height="90" as="geometry" />
        </mxCell>
        <mxCell id="PtnBD-MqwxmyIaQdnE39-4" value="Message Dispatcher" style="rounded=1;whiteSpace=wrap;html=1;fillColor=#dae8fc;strokeColor=#6c8ebf;textDirection=vertical-lr;verticalAlign=middle;rotation=-90;" vertex="1" parent="1">
          <mxGeometry x="279.38" y="1582" width="73.75" height="442.5" as="geometry" />
        </mxCell>
        <mxCell id="PtnBD-MqwxmyIaQdnE39-5" value="&lt;div&gt;Funtion 1&lt;/div&gt;" style="rounded=1;whiteSpace=wrap;html=1;rotation=0;fillColor=#fff2cc;strokeColor=#d6b656;" vertex="1" parent="1">
          <mxGeometry x="113.76" y="1521.38" width="80" height="90" as="geometry" />
        </mxCell>
        <mxCell id="PtnBD-MqwxmyIaQdnE39-6" value="&lt;div&gt;Funtion 2&lt;/div&gt;" style="rounded=1;whiteSpace=wrap;html=1;rotation=0;textDirection=ltr;fillColor=#fff2cc;strokeColor=#d6b656;" vertex="1" parent="1">
          <mxGeometry x="222.97" y="1521.38" width="80" height="90" as="geometry" />
        </mxCell>
        <mxCell id="PtnBD-MqwxmyIaQdnE39-7" value="&lt;div&gt;Funtion 4&lt;/div&gt;" style="rounded=1;whiteSpace=wrap;html=1;rotation=0;textDirection=ltr;fillColor=#fff2cc;strokeColor=#d6b656;" vertex="1" parent="1">
          <mxGeometry x="443.76" y="1521.38" width="80" height="90" as="geometry" />
        </mxCell>
        <mxCell id="PtnBD-MqwxmyIaQdnE39-8" value="&lt;font style=&quot;font-size: 10px;&quot;&gt;Message1&lt;/font&gt;" style="rounded=1;whiteSpace=wrap;html=1;fillColor=#b1ddf0;strokeColor=#10739e;" vertex="1" parent="1">
          <mxGeometry x="110" y="1751.38" width="50" height="30" as="geometry" />
        </mxCell>
        <mxCell id="PtnBD-MqwxmyIaQdnE39-9" value="&lt;font style=&quot;font-size: 10px;&quot;&gt;Message2&lt;/font&gt;" style="rounded=1;whiteSpace=wrap;html=1;fillColor=#b1ddf0;strokeColor=#10739e;" vertex="1" parent="1">
          <mxGeometry x="170" y="1751.38" width="50" height="30" as="geometry" />
        </mxCell>
        <mxCell id="PtnBD-MqwxmyIaQdnE39-10" value="&lt;font style=&quot;font-size: 10px;&quot;&gt;Message3&lt;/font&gt;" style="rounded=1;whiteSpace=wrap;html=1;fillColor=#b1ddf0;strokeColor=#10739e;" vertex="1" parent="1">
          <mxGeometry x="230" y="1751.38" width="50" height="30" as="geometry" />
        </mxCell>
        <mxCell id="PtnBD-MqwxmyIaQdnE39-11" value="&lt;font style=&quot;font-size: 10px;&quot;&gt;Message4&lt;/font&gt;" style="rounded=1;whiteSpace=wrap;html=1;fillColor=#b1ddf0;strokeColor=#10739e;" vertex="1" parent="1">
          <mxGeometry x="290" y="1751.38" width="50" height="30" as="geometry" />
        </mxCell>
        <mxCell id="PtnBD-MqwxmyIaQdnE39-12" value="&lt;font style=&quot;font-size: 10px;&quot;&gt;Message&lt;/font&gt;&lt;span style=&quot;font-size: 10px;&quot;&gt;5&lt;/span&gt;" style="rounded=1;whiteSpace=wrap;html=1;fillColor=#b1ddf0;strokeColor=#10739e;" vertex="1" parent="1">
          <mxGeometry x="350" y="1751.38" width="50" height="30" as="geometry" />
        </mxCell>
        <mxCell id="PtnBD-MqwxmyIaQdnE39-13" value="&lt;font style=&quot;font-size: 10px;&quot;&gt;Message6&lt;/font&gt;" style="rounded=1;whiteSpace=wrap;html=1;fillColor=#b1ddf0;strokeColor=#10739e;" vertex="1" parent="1">
          <mxGeometry x="410" y="1751.38" width="52" height="30" as="geometry" />
        </mxCell>
        <mxCell id="PtnBD-MqwxmyIaQdnE39-14" value="&lt;font style=&quot;font-size: 10px;&quot;&gt;Message7&lt;/font&gt;" style="rounded=1;whiteSpace=wrap;html=1;fillColor=#b1ddf0;strokeColor=#10739e;" vertex="1" parent="1">
          <mxGeometry x="470" y="1751.38" width="50" height="30" as="geometry" />
        </mxCell>
        <mxCell id="PtnBD-MqwxmyIaQdnE39-27" value="&lt;div&gt;Funtion 3&lt;/div&gt;" style="rounded=1;whiteSpace=wrap;html=1;rotation=0;textDirection=ltr;fillColor=#fff2cc;strokeColor=#d6b656;" vertex="1" parent="1">
          <mxGeometry x="333.76" y="1521.38" width="80" height="90" as="geometry" />
        </mxCell>
        <mxCell id="PtnBD-MqwxmyIaQdnE39-30" value="KIPC" style="rounded=1;whiteSpace=wrap;html=1;fillColor=#f5f5f5;strokeColor=#666666;textDirection=vertical-lr;verticalAlign=middle;rotation=-90;fontColor=#333333;" vertex="1" parent="1">
          <mxGeometry x="55" y="1550" width="65.63" height="907.5" as="geometry" />
        </mxCell>
        <mxCell id="PtnBD-MqwxmyIaQdnE39-32" value="Message Queue" style="rounded=1;whiteSpace=wrap;html=1;fillColor=#d5e8d4;strokeColor=#82b366;textDirection=vertical-lr;verticalAlign=middle;rotation=-90;" vertex="1" parent="1">
          <mxGeometry x="300.47" y="1889.9999999999998" width="31.57" height="217.09" as="geometry" />
        </mxCell>
        <mxCell id="PtnBD-MqwxmyIaQdnE39-33" value="" style="endArrow=classic;html=1;rounded=0;entryX=0;entryY=0.5;entryDx=0;entryDy=0;exitX=0.5;exitY=0;exitDx=0;exitDy=0;" edge="1" parent="1" source="PtnBD-MqwxmyIaQdnE39-76" target="PtnBD-MqwxmyIaQdnE39-4">
          <mxGeometry width="50" height="50" relative="1" as="geometry">
            <mxPoint x="260" y="1970" as="sourcePoint" />
            <mxPoint x="310" y="1920" as="targetPoint" />
          </mxGeometry>
        </mxCell>
        <mxCell id="PtnBD-MqwxmyIaQdnE39-34" value="" style="endArrow=classic;html=1;rounded=0;exitX=0.5;exitY=0;exitDx=0;exitDy=0;entryX=0.5;entryY=1;entryDx=0;entryDy=0;" edge="1" parent="1" source="PtnBD-MqwxmyIaQdnE39-8" target="PtnBD-MqwxmyIaQdnE39-5">
          <mxGeometry relative="1" as="geometry">
            <mxPoint x="160" y="1532" as="sourcePoint" />
            <mxPoint x="260" y="1532" as="targetPoint" />
          </mxGeometry>
        </mxCell>
        <mxCell id="PtnBD-MqwxmyIaQdnE39-35" value="" style="shape=message;html=1;outlineConnect=0;" vertex="1" parent="PtnBD-MqwxmyIaQdnE39-34">
          <mxGeometry width="20" height="14" relative="1" as="geometry">
            <mxPoint x="-10" y="-7" as="offset" />
          </mxGeometry>
        </mxCell>
        <mxCell id="PtnBD-MqwxmyIaQdnE39-36" value="" style="endArrow=classic;html=1;rounded=0;entryX=0.75;entryY=1;entryDx=0;entryDy=0;exitX=0.5;exitY=0;exitDx=0;exitDy=0;" edge="1" parent="1" source="PtnBD-MqwxmyIaQdnE39-10" target="PtnBD-MqwxmyIaQdnE39-5">
          <mxGeometry relative="1" as="geometry">
            <mxPoint x="145" y="1761" as="sourcePoint" />
            <mxPoint x="164" y="1621" as="targetPoint" />
          </mxGeometry>
        </mxCell>
        <mxCell id="PtnBD-MqwxmyIaQdnE39-37" value="" style="shape=message;html=1;outlineConnect=0;" vertex="1" parent="PtnBD-MqwxmyIaQdnE39-36">
          <mxGeometry width="20" height="14" relative="1" as="geometry">
            <mxPoint x="-10" y="-7" as="offset" />
          </mxGeometry>
        </mxCell>
        <mxCell id="PtnBD-MqwxmyIaQdnE39-39" value="" style="endArrow=classic;html=1;rounded=0;entryX=0.5;entryY=1;entryDx=0;entryDy=0;exitX=0.5;exitY=0;exitDx=0;exitDy=0;" edge="1" parent="1" source="PtnBD-MqwxmyIaQdnE39-9" target="PtnBD-MqwxmyIaQdnE39-6">
          <mxGeometry relative="1" as="geometry">
            <mxPoint x="265" y="1761" as="sourcePoint" />
            <mxPoint x="184" y="1621" as="targetPoint" />
          </mxGeometry>
        </mxCell>
        <mxCell id="PtnBD-MqwxmyIaQdnE39-40" value="" style="shape=message;html=1;outlineConnect=0;" vertex="1" parent="PtnBD-MqwxmyIaQdnE39-39">
          <mxGeometry width="20" height="14" relative="1" as="geometry">
            <mxPoint x="-10" y="-7" as="offset" />
          </mxGeometry>
        </mxCell>
        <mxCell id="PtnBD-MqwxmyIaQdnE39-41" value="" style="endArrow=classic;html=1;rounded=0;entryX=0.615;entryY=0.997;entryDx=0;entryDy=0;exitX=0.5;exitY=0;exitDx=0;exitDy=0;entryPerimeter=0;" edge="1" parent="1" source="PtnBD-MqwxmyIaQdnE39-11" target="PtnBD-MqwxmyIaQdnE39-6">
          <mxGeometry relative="1" as="geometry">
            <mxPoint x="205" y="1761" as="sourcePoint" />
            <mxPoint x="274" y="1621" as="targetPoint" />
          </mxGeometry>
        </mxCell>
        <mxCell id="PtnBD-MqwxmyIaQdnE39-42" value="" style="shape=message;html=1;outlineConnect=0;" vertex="1" parent="PtnBD-MqwxmyIaQdnE39-41">
          <mxGeometry width="20" height="14" relative="1" as="geometry">
            <mxPoint x="-10" y="-7" as="offset" />
          </mxGeometry>
        </mxCell>
        <mxCell id="PtnBD-MqwxmyIaQdnE39-43" value="" style="endArrow=classic;html=1;rounded=0;entryX=0.628;entryY=1.02;entryDx=0;entryDy=0;exitX=0.5;exitY=0;exitDx=0;exitDy=0;entryPerimeter=0;" edge="1" parent="1" source="PtnBD-MqwxmyIaQdnE39-13" target="PtnBD-MqwxmyIaQdnE39-27">
          <mxGeometry relative="1" as="geometry">
            <mxPoint x="325" y="1761" as="sourcePoint" />
            <mxPoint x="282" y="1621" as="targetPoint" />
          </mxGeometry>
        </mxCell>
        <mxCell id="PtnBD-MqwxmyIaQdnE39-44" value="" style="shape=message;html=1;outlineConnect=0;" vertex="1" parent="PtnBD-MqwxmyIaQdnE39-43">
          <mxGeometry width="20" height="14" relative="1" as="geometry">
            <mxPoint x="-10" y="-7" as="offset" />
          </mxGeometry>
        </mxCell>
        <mxCell id="PtnBD-MqwxmyIaQdnE39-45" value="" style="endArrow=classic;html=1;rounded=0;entryX=0.43;entryY=0.997;entryDx=0;entryDy=0;entryPerimeter=0;" edge="1" parent="1" source="PtnBD-MqwxmyIaQdnE39-12" target="PtnBD-MqwxmyIaQdnE39-27">
          <mxGeometry relative="1" as="geometry">
            <mxPoint x="446" y="1761" as="sourcePoint" />
            <mxPoint x="394" y="1623" as="targetPoint" />
          </mxGeometry>
        </mxCell>
        <mxCell id="PtnBD-MqwxmyIaQdnE39-46" value="" style="shape=message;html=1;outlineConnect=0;" vertex="1" parent="PtnBD-MqwxmyIaQdnE39-45">
          <mxGeometry width="20" height="14" relative="1" as="geometry">
            <mxPoint x="-10" y="-7" as="offset" />
          </mxGeometry>
        </mxCell>
        <mxCell id="PtnBD-MqwxmyIaQdnE39-47" value="" style="endArrow=classic;html=1;rounded=0;entryX=0.5;entryY=1;entryDx=0;entryDy=0;exitX=0.5;exitY=0;exitDx=0;exitDy=0;" edge="1" parent="1" source="PtnBD-MqwxmyIaQdnE39-14" target="PtnBD-MqwxmyIaQdnE39-7">
          <mxGeometry relative="1" as="geometry">
            <mxPoint x="446" y="1761" as="sourcePoint" />
            <mxPoint x="394" y="1623" as="targetPoint" />
          </mxGeometry>
        </mxCell>
        <mxCell id="PtnBD-MqwxmyIaQdnE39-48" value="" style="shape=message;html=1;outlineConnect=0;" vertex="1" parent="PtnBD-MqwxmyIaQdnE39-47">
          <mxGeometry width="20" height="14" relative="1" as="geometry">
            <mxPoint x="-10" y="-7" as="offset" />
          </mxGeometry>
        </mxCell>
        <object label="PROCESS 3" id="PtnBD-MqwxmyIaQdnE39-53">
          <mxCell style="rounded=1;whiteSpace=wrap;html=1;fillColor=#ffe6cc;strokeColor=#d79b00;" vertex="1" parent="1">
            <mxGeometry x="-100" y="1578.7600000000002" width="80" height="120" as="geometry" />
          </mxCell>
        </object>
        <object label="PROCESS 1" id="PtnBD-MqwxmyIaQdnE39-56">
          <mxCell style="rounded=1;whiteSpace=wrap;html=1;fillColor=#ffe6cc;strokeColor=#d79b00;" vertex="1" parent="1">
            <mxGeometry x="-320" y="1578.7600000000002" width="80" height="120" as="geometry" />
          </mxCell>
        </object>
        <mxCell id="PtnBD-MqwxmyIaQdnE39-57" value="&lt;div&gt;Message Processor&lt;/div&gt;" style="rounded=1;whiteSpace=wrap;html=1;fillColor=#e1d5e7;strokeColor=#9673a6;" vertex="1" parent="1">
          <mxGeometry x="-210" y="1730" width="80" height="90" as="geometry" />
        </mxCell>
        <mxCell id="PtnBD-MqwxmyIaQdnE39-58" value="&lt;div&gt;Message Processor&lt;/div&gt;" style="rounded=1;whiteSpace=wrap;html=1;fillColor=#e1d5e7;strokeColor=#9673a6;" vertex="1" parent="1">
          <mxGeometry x="-100" y="1730" width="80" height="90" as="geometry" />
        </mxCell>
        <mxCell id="PtnBD-MqwxmyIaQdnE39-59" value="" style="endArrow=classic;html=1;rounded=0;" edge="1" parent="1" target="PtnBD-MqwxmyIaQdnE39-1">
          <mxGeometry width="50" height="50" relative="1" as="geometry">
            <mxPoint x="-280" y="1700" as="sourcePoint" />
            <mxPoint x="140" y="1800" as="targetPoint" />
          </mxGeometry>
        </mxCell>
        <mxCell id="PtnBD-MqwxmyIaQdnE39-60" value="" style="endArrow=classic;html=1;rounded=0;entryX=0.5;entryY=0;entryDx=0;entryDy=0;" edge="1" parent="1" target="PtnBD-MqwxmyIaQdnE39-57">
          <mxGeometry width="50" height="50" relative="1" as="geometry">
            <mxPoint x="-170" y="1700" as="sourcePoint" />
            <mxPoint x="-270" y="1740" as="targetPoint" />
          </mxGeometry>
        </mxCell>
        <mxCell id="PtnBD-MqwxmyIaQdnE39-61" value="" style="endArrow=classic;html=1;rounded=0;entryX=0.5;entryY=0;entryDx=0;entryDy=0;exitX=0.5;exitY=1;exitDx=0;exitDy=0;" edge="1" parent="1" source="PtnBD-MqwxmyIaQdnE39-53" target="PtnBD-MqwxmyIaQdnE39-58">
          <mxGeometry width="50" height="50" relative="1" as="geometry">
            <mxPoint x="-160" y="1710" as="sourcePoint" />
            <mxPoint x="-160" y="1740" as="targetPoint" />
          </mxGeometry>
        </mxCell>
        <mxCell id="PtnBD-MqwxmyIaQdnE39-65" value="" style="endArrow=classic;html=1;rounded=0;exitX=0.5;exitY=1;exitDx=0;exitDy=0;entryX=1.014;entryY=0.094;entryDx=0;entryDy=0;entryPerimeter=0;" edge="1" parent="1" target="PtnBD-MqwxmyIaQdnE39-30">
          <mxGeometry width="50" height="50" relative="1" as="geometry">
            <mxPoint x="-280.42000000000024" y="1820" as="sourcePoint" />
            <mxPoint x="-280.42" y="1970" as="targetPoint" />
          </mxGeometry>
        </mxCell>
        <mxCell id="PtnBD-MqwxmyIaQdnE39-66" value="" style="endArrow=classic;html=1;rounded=0;exitX=0.5;exitY=1;exitDx=0;exitDy=0;entryX=1.014;entryY=0.216;entryDx=0;entryDy=0;entryPerimeter=0;" edge="1" parent="1" source="PtnBD-MqwxmyIaQdnE39-57" target="PtnBD-MqwxmyIaQdnE39-30">
          <mxGeometry width="50" height="50" relative="1" as="geometry">
            <mxPoint x="-270.42000000000024" y="1830" as="sourcePoint" />
            <mxPoint x="-170" y="1970" as="targetPoint" />
          </mxGeometry>
        </mxCell>
        <mxCell id="PtnBD-MqwxmyIaQdnE39-68" value="" style="endArrow=classic;html=1;rounded=0;exitX=0.5;exitY=1;exitDx=0;exitDy=0;entryX=0.996;entryY=0.338;entryDx=0;entryDy=0;entryPerimeter=0;" edge="1" parent="1" source="PtnBD-MqwxmyIaQdnE39-58" target="PtnBD-MqwxmyIaQdnE39-30">
          <mxGeometry width="50" height="50" relative="1" as="geometry">
            <mxPoint x="-160" y="1830" as="sourcePoint" />
            <mxPoint x="-160" y="1980" as="targetPoint" />
          </mxGeometry>
        </mxCell>
        <mxCell id="PtnBD-MqwxmyIaQdnE39-76" value="&lt;div&gt;Message Processor&lt;/div&gt;" style="rounded=1;whiteSpace=wrap;html=1;fillColor=#e1d5e7;strokeColor=#9673a6;" vertex="1" parent="1">
          <mxGeometry x="93.76" y="1863" width="445" height="70" as="geometry" />
        </mxCell>
        <mxCell id="PtnBD-MqwxmyIaQdnE39-77" value="" style="endArrow=classic;html=1;rounded=0;entryX=0.5;entryY=1;entryDx=0;entryDy=0;exitX=1;exitY=0.5;exitDx=0;exitDy=0;" edge="1" parent="1" source="PtnBD-MqwxmyIaQdnE39-32" target="PtnBD-MqwxmyIaQdnE39-76">
          <mxGeometry width="50" height="50" relative="1" as="geometry">
            <mxPoint x="326" y="1880" as="sourcePoint" />
            <mxPoint x="326" y="1850" as="targetPoint" />
          </mxGeometry>
        </mxCell>
        <mxCell id="PtnBD-MqwxmyIaQdnE39-79" value="&lt;font style=&quot;font-size: 10px;&quot;&gt;message definition header file&lt;/font&gt;" style="shape=note;whiteSpace=wrap;html=1;backgroundOutline=1;darkOpacity=0.05;size=11;" vertex="1" parent="1">
          <mxGeometry x="10" y="1890" width="50" height="68.62" as="geometry" />
        </mxCell>
        <mxCell id="PtnBD-MqwxmyIaQdnE39-81" value="&lt;font style=&quot;font-size: 10px;&quot;&gt;message definition header file&lt;/font&gt;" style="shape=note;whiteSpace=wrap;html=1;backgroundOutline=1;darkOpacity=0.05;size=11;" vertex="1" parent="1">
          <mxGeometry x="10" y="1810" width="50" height="68.62" as="geometry" />
        </mxCell>
        <mxCell id="PtnBD-MqwxmyIaQdnE39-82" value="&lt;font style=&quot;font-size: 10px;&quot;&gt;message definition header file&lt;/font&gt;" style="shape=note;whiteSpace=wrap;html=1;backgroundOutline=1;darkOpacity=0.05;size=11;" vertex="1" parent="1">
          <mxGeometry x="10" y="1732.0700000000002" width="50" height="68.62" as="geometry" />
        </mxCell>
        <mxCell id="PtnBD-MqwxmyIaQdnE39-83" value="" style="endArrow=none;dashed=1;html=1;rounded=0;exitX=0.982;exitY=0.394;exitDx=0;exitDy=0;entryX=0;entryY=0.5;entryDx=0;entryDy=0;entryPerimeter=0;exitPerimeter=0;" edge="1" parent="1" source="PtnBD-MqwxmyIaQdnE39-58" target="PtnBD-MqwxmyIaQdnE39-82">
          <mxGeometry width="50" height="50" relative="1" as="geometry">
            <mxPoint x="-80" y="1860" as="sourcePoint" />
            <mxPoint x="-30" y="1810" as="targetPoint" />
          </mxGeometry>
        </mxCell>
        <mxCell id="PtnBD-MqwxmyIaQdnE39-85" value="" style="endArrow=none;dashed=1;html=1;rounded=0;exitX=0.75;exitY=1;exitDx=0;exitDy=0;entryX=0.011;entryY=0.558;entryDx=0;entryDy=0;entryPerimeter=0;" edge="1" parent="1" source="PtnBD-MqwxmyIaQdnE39-1" target="PtnBD-MqwxmyIaQdnE39-79">
          <mxGeometry width="50" height="50" relative="1" as="geometry">
            <mxPoint x="-230" y="1763" as="sourcePoint" />
            <mxPoint x="-30" y="1930" as="targetPoint" />
            <Array as="points">
              <mxPoint x="-260" y="1930" />
            </Array>
          </mxGeometry>
        </mxCell>
        <mxCell id="PtnBD-MqwxmyIaQdnE39-86" value="" style="endArrow=none;dashed=1;html=1;rounded=0;exitX=0.75;exitY=1;exitDx=0;exitDy=0;entryX=0;entryY=0.5;entryDx=0;entryDy=0;entryPerimeter=0;" edge="1" parent="1" source="PtnBD-MqwxmyIaQdnE39-57" target="PtnBD-MqwxmyIaQdnE39-81">
          <mxGeometry width="50" height="50" relative="1" as="geometry">
            <mxPoint x="-120" y="1785" as="sourcePoint" />
            <mxPoint x="20" y="1844" as="targetPoint" />
            <Array as="points">
              <mxPoint x="-150" y="1844" />
            </Array>
          </mxGeometry>
        </mxCell>
        <mxCell id="PtnBD-MqwxmyIaQdnE39-87" value="" style="endArrow=none;dashed=1;html=1;rounded=0;entryX=0;entryY=0;entryDx=50;entryDy=39.81;entryPerimeter=0;exitX=0;exitY=0.5;exitDx=0;exitDy=0;" edge="1" parent="1" source="PtnBD-MqwxmyIaQdnE39-76" target="PtnBD-MqwxmyIaQdnE39-82">
          <mxGeometry width="50" height="50" relative="1" as="geometry">
            <mxPoint x="-180" y="1900" as="sourcePoint" />
            <mxPoint x="-130" y="1850" as="targetPoint" />
          </mxGeometry>
        </mxCell>
        <mxCell id="PtnBD-MqwxmyIaQdnE39-88" value="" style="endArrow=none;dashed=1;html=1;rounded=0;entryX=0;entryY=0;entryDx=50;entryDy=39.81;entryPerimeter=0;exitX=0;exitY=0.5;exitDx=0;exitDy=0;" edge="1" parent="1" source="PtnBD-MqwxmyIaQdnE39-76" target="PtnBD-MqwxmyIaQdnE39-81">
          <mxGeometry width="50" height="50" relative="1" as="geometry">
            <mxPoint x="104" y="1908" as="sourcePoint" />
            <mxPoint x="70" y="1782" as="targetPoint" />
          </mxGeometry>
        </mxCell>
        <mxCell id="PtnBD-MqwxmyIaQdnE39-89" value="" style="endArrow=none;dashed=1;html=1;rounded=0;entryX=0;entryY=0;entryDx=50;entryDy=39.81;entryPerimeter=0;exitX=0;exitY=0.5;exitDx=0;exitDy=0;" edge="1" parent="1" source="PtnBD-MqwxmyIaQdnE39-76" target="PtnBD-MqwxmyIaQdnE39-79">
          <mxGeometry width="50" height="50" relative="1" as="geometry">
            <mxPoint x="104" y="1908" as="sourcePoint" />
            <mxPoint x="70" y="1860" as="targetPoint" />
          </mxGeometry>
        </mxCell>
      </root>
    </mxGraphModel>
  </diagram>
</mxfile>
